<?xml version="1.0" encoding="utf-8"?>
<!-- Generator: Adobe Illustrator 16.0.3, SVG Export Plug-In . SVG Version: 6.00 Build 0)  -->
<!DOCTYPE svg PUBLIC "-//W3C//DTD SVG 1.1//EN" "http://www.w3.org/Graphics/SVG/1.1/DTD/svg11.dtd">
<svg version="1.1" id="Layer_1" xmlns="http://www.w3.org/2000/svg" xmlns:xlink="http://www.w3.org/1999/xlink" x="0px" y="0px"
	 width="800px" height="800px" viewBox="0 0 800 800" enable-background="new 0 0 800 800" xml:space="preserve">
<g>
	<path fill="none" stroke="#FF6699" stroke-width="7" stroke-linecap="round" stroke-miterlimit="10" stroke-dasharray="47.8" d="
		M170.469,414.338c-9.403-161.79,106.108-299.861,258.255-308.703c152.154-8.842,282.879,114.92,292.281,276.709"/>
	<path fill="none" stroke="#FF6699" stroke-width="7" stroke-linecap="round" stroke-miterlimit="10" stroke-dasharray="47.8" d="
		M239.286,410.338c-7.051-121.341,79.581-224.896,193.695-231.527c114.113-6.631,212.156,86.19,219.209,207.532"/>
	<path fill="none" stroke="#FF6699" stroke-width="7" stroke-linecap="round" stroke-miterlimit="10" stroke-dasharray="47.8" d="
		M308.104,406.338c-4.701-80.892,53.054-149.93,129.128-154.351c76.074-4.421,141.439,57.461,146.141,138.354"/>
	<path fill="none" stroke="#FF6699" stroke-width="7" stroke-linecap="round" stroke-miterlimit="10" stroke-dasharray="47.8" d="
		M376.92,402.339c-2.35-40.446,26.527-74.965,64.564-77.175c38.041-2.21,70.721,28.731,73.07,69.177"/>
	<path fill="none" stroke="#FF6699" stroke-width="7" stroke-linecap="round" stroke-miterlimit="10" stroke-dasharray="47.8" d="
		M652.705,387.195c9.402,161.787-106.107,299.86-258.258,308.701c-152.15,8.844-282.877-114.92-292.279-276.709"/>
	<path fill="none" stroke="#FF6699" stroke-width="7" stroke-linecap="round" stroke-miterlimit="10" stroke-dasharray="47.8" d="
		M583.889,391.194c7.053,121.339-79.582,224.896-193.693,231.526c-114.114,6.633-212.159-86.191-219.21-207.531"/>
	<path fill="none" stroke="#FF6699" stroke-width="7" stroke-linecap="round" stroke-miterlimit="10" stroke-dasharray="47.8" d="
		M515.074,395.192c4.701,80.895-53.057,149.931-129.132,154.351c-76.076,4.422-141.438-57.459-146.139-138.353"/>
	<path fill="none" stroke="#FF6699" stroke-width="7" stroke-linecap="round" stroke-miterlimit="10" stroke-dasharray="47.8" d="
		M446.254,399.192c2.35,40.448-26.525,74.963-64.564,77.174c-38.037,2.21-70.717-28.729-73.068-69.176"/>
</g>
</svg>
