<?xml version="1.0" encoding="utf-8"?>
<!-- Generator: Adobe Illustrator 16.0.3, SVG Export Plug-In . SVG Version: 6.00 Build 0)  -->
<!DOCTYPE svg PUBLIC "-//W3C//DTD SVG 1.1//EN" "http://www.w3.org/Graphics/SVG/1.1/DTD/svg11.dtd">
<svg version="1.1" id="Layer_1" xmlns="http://www.w3.org/2000/svg" xmlns:xlink="http://www.w3.org/1999/xlink" x="0px" y="0px"
	 width="503.511px" height="520.507px" viewBox="49.372 -3.68 503.511 520.507"
	 enable-background="new 49.372 -3.68 503.511 520.507" xml:space="preserve">
<g>
	
		<path fill="none" stroke="#33CCFF" stroke-width="50" stroke-linecap="round" stroke-linejoin="round" stroke-miterlimit="10" stroke-dasharray="65" d="
		M283.956,295.327c-14.038-21.681-7.818-50.757,13.861-64.796c21.678-14.036,50.757-7.815,64.792,13.862l-0.094-0.094
		c28.074,43.355,15.825,101.385-27.627,129.523c-43.451,28.137-101.414,15.57-129.488-27.784l-0.002,0.156
		c-42.236-65.227-23.518-151.95,41.613-194.124c65.128-42.174,151.92-23.772,194.156,41.453l-0.094-0.094
		c56.272,86.902,31.524,202.581-55.378,258.854c-86.904,56.272-202.581,31.523-258.854-55.378l-0.003,0.157
		C56.528,288.482,87.497,143.726,196.08,73.417c108.58-70.31,253.335-39.343,323.646,69.239"/>
	
		<path fill="none" stroke="#FFFBEC" stroke-width="15" stroke-linecap="round" stroke-linejoin="round" stroke-miterlimit="10" stroke-dasharray="65" d="
		M283.956,295.327c-14.038-21.681-7.818-50.757,13.861-64.796c21.678-14.036,50.757-7.815,64.792,13.862l-0.094-0.094
		c28.074,43.354,15.825,101.385-27.627,129.522c-43.451,28.137-101.414,15.57-129.488-27.784l-0.002,0.156
		c-42.236-65.227-23.518-151.95,41.613-194.124c65.128-42.174,151.92-23.772,194.156,41.453l-0.094-0.094
		c56.272,86.902,31.524,202.581-55.378,258.854c-86.904,56.272-202.581,31.523-258.854-55.378l-0.003,0.157
		C56.528,288.482,87.497,143.726,196.08,73.417c108.58-70.31,253.335-39.343,323.646,69.239"/>
</g>
</svg>
