<?xml version="1.0" encoding="utf-8"?>
<!-- Generator: Adobe Illustrator 16.0.3, SVG Export Plug-In . SVG Version: 6.00 Build 0)  -->
<!DOCTYPE svg PUBLIC "-//W3C//DTD SVG 1.1//EN" "http://www.w3.org/Graphics/SVG/1.1/DTD/svg11.dtd">
<svg version="1.1" id="Layer_1" xmlns="http://www.w3.org/2000/svg" xmlns:xlink="http://www.w3.org/1999/xlink" x="0px" y="0px"
	 width="267.671px" height="263.03px" viewBox="0 0 267.671 263.03" enable-background="new 0 0 267.671 263.03"
	 xml:space="preserve">
<path fill-rule="evenodd" clip-rule="evenodd" fill="#FFFBEC" stroke="#33CCFF" stroke-width="3" stroke-miterlimit="10" d="
	M102.893,186.155c0,0-19.95,40.85,29.45,70.299c0,0-31.35-27.549-14.25-69.35c0,0,72.2,19.95,126.35-34.199
	c54.149-54.15-35.15-148.201-116.85-146.301c-81.7,1.9-129.2,47.5-119.7,103.55C17.393,166.204,102.893,186.155,102.893,186.155z"/>
<g>
	<path fill="#FF6699" d="M96.169,41.99c0.14-0.697,0.01-1.306-0.391-1.826c-0.401-0.521-1.174-1.091-2.318-1.708
		c-1.965-1.051-3.402-2.112-4.313-3.185c-0.911-1.071-1.219-2.347-0.923-3.823c0.299-1.486,1.152-2.577,2.561-3.273
		c1.409-0.697,3.06-0.855,4.951-0.477c2.009,0.403,3.522,1.233,4.543,2.492c1.021,1.259,1.346,2.704,0.975,4.339l-0.04,0.069
		l-3.522-0.707c0.182-0.904,0.048-1.653-0.403-2.249c-0.449-0.596-1.168-0.992-2.155-1.19c-0.896-0.18-1.633-0.104-2.209,0.23
		c-0.577,0.332-0.933,0.836-1.067,1.508c-0.123,0.613,0.042,1.171,0.493,1.672c0.452,0.5,1.286,1.102,2.5,1.803
		c1.878,0.965,3.249,2.006,4.112,3.124s1.146,2.421,0.848,3.905c-0.312,1.553-1.163,2.654-2.555,3.308s-3.083,0.779-5.074,0.38
		c-1.95-0.392-3.526-1.213-4.73-2.465c-1.203-1.251-1.591-2.835-1.163-4.752l0.04-0.07l3.522,0.707
		c-0.215,1.071-0.058,1.923,0.472,2.556c0.528,0.632,1.333,1.058,2.411,1.273c0.971,0.195,1.753,0.141,2.345-0.163
		C95.668,43.163,96.033,42.669,96.169,41.99z"/>
	<path fill="#FF6699" d="M111.183,47.852c-0.56,0.639-1.198,1.089-1.915,1.351c-0.718,0.262-1.5,0.308-2.346,0.138
		c-1.419-0.285-2.433-0.988-3.04-2.112c-0.607-1.123-0.708-2.697-0.302-4.722l1.566-7.805l3.622,0.728l-1.571,7.829
		c-0.236,1.178-0.238,2.018-0.007,2.517c0.232,0.501,0.685,0.817,1.356,0.952c0.581,0.117,1.097,0.124,1.55,0.021
		c0.452-0.104,0.848-0.312,1.187-0.623l1.967-9.796l3.634,0.729l-2.703,13.468l-3.012-0.604L111.183,47.852z"/>
	<path fill="#FF6699" d="M124.328,49.934c0.631,0.126,1.171,0.039,1.62-0.265c0.449-0.302,0.737-0.769,0.863-1.399l3.312,0.664
		l0.01,0.08c-0.24,1.367-0.975,2.405-2.204,3.111c-1.23,0.708-2.617,0.906-4.16,0.597c-1.991-0.4-3.402-1.346-4.234-2.838
		c-0.831-1.492-1.048-3.229-0.649-5.213l0.075-0.373c0.396-1.975,1.265-3.495,2.604-4.56s3.002-1.398,4.985-1
		c1.643,0.33,2.871,1.068,3.686,2.216c0.814,1.148,1.05,2.49,0.707,4.027l-0.04,0.069l-3.311-0.664
		c0.14-0.697,0.071-1.313-0.206-1.848c-0.276-0.535-0.743-0.868-1.398-1c-0.938-0.188-1.679,0.054-2.224,0.726
		s-0.935,1.593-1.17,2.763l-0.075,0.373c-0.239,1.195-0.236,2.201,0.01,3.02C122.773,49.238,123.374,49.743,124.328,49.934z"/>
	<path fill="#FF6699" d="M138.747,52.829c0.631,0.126,1.17,0.038,1.619-0.265c0.45-0.303,0.737-0.77,0.864-1.399l3.311,0.664
		l0.01,0.08c-0.24,1.367-0.975,2.405-2.204,3.111c-1.229,0.707-2.616,0.906-4.16,0.596c-1.991-0.399-3.402-1.345-4.233-2.837
		c-0.832-1.492-1.048-3.229-0.65-5.213l0.075-0.373c0.396-1.975,1.265-3.495,2.604-4.56c1.341-1.064,3.002-1.398,4.985-1
		c1.644,0.33,2.872,1.068,3.686,2.216c0.814,1.147,1.05,2.49,0.707,4.026l-0.039,0.07l-3.312-0.665
		c0.14-0.697,0.071-1.313-0.205-1.848c-0.276-0.534-0.743-0.868-1.399-0.999c-0.938-0.188-1.679,0.054-2.224,0.726
		c-0.544,0.672-0.935,1.593-1.169,2.763l-0.075,0.373c-0.24,1.195-0.236,2.201,0.009,3.019
		C137.192,52.132,137.792,52.636,138.747,52.829z"/>
	<path fill="#FF6699" d="M152.817,58.553c-2.008-0.403-3.452-1.334-4.334-2.793c-0.881-1.459-1.127-3.159-0.736-5.101l0.1-0.498
		c0.404-2.017,1.284-3.558,2.638-4.624s2.987-1.402,4.902-1.01c1.81,0.363,3.086,1.195,3.83,2.497s0.929,2.891,0.552,4.767
		l-0.377,1.879l-8.028-1.611l-0.052,0.067c-0.128,0.933,0.003,1.735,0.39,2.408c0.388,0.674,1.074,1.109,2.063,1.308
		c0.813,0.163,1.521,0.22,2.122,0.167c0.602-0.052,1.239-0.187,1.913-0.405l0.534,2.438c-0.628,0.332-1.433,0.555-2.413,0.668
		C154.938,58.823,153.904,58.771,152.817,58.553z M154.824,47.329c-0.729-0.146-1.343-0.009-1.837,0.414
		c-0.495,0.424-0.867,1.041-1.117,1.854l0.013,0.067l4.431,0.889l0.056-0.273c0.158-0.789,0.121-1.441-0.112-1.959
		C156.024,47.804,155.546,47.473,154.824,47.329z"/>
	<path fill="#FF6699" d="M169.667,57.78c0.08-0.398-0.043-0.779-0.372-1.144c-0.328-0.364-0.993-0.759-1.996-1.185
		c-1.513-0.632-2.614-1.349-3.304-2.151c-0.688-0.804-0.924-1.753-0.703-2.848c0.231-1.153,0.918-2.039,2.061-2.655
		c1.143-0.617,2.527-0.762,4.153-0.436c1.702,0.342,2.981,1.021,3.845,2.041c0.861,1.019,1.148,2.129,0.865,3.333l-0.04,0.069
		l-3.51-0.705c0.108-0.539,0.022-1.014-0.259-1.424c-0.28-0.41-0.748-0.681-1.403-0.813c-0.581-0.117-1.07-0.064-1.47,0.158
		c-0.398,0.223-0.64,0.545-0.725,0.969c-0.084,0.414,0.025,0.788,0.325,1.12c0.301,0.332,0.969,0.71,2.006,1.134
		c1.585,0.664,2.718,1.398,3.397,2.204c0.681,0.805,0.906,1.772,0.68,2.9c-0.243,1.212-0.961,2.1-2.153,2.663
		c-1.191,0.563-2.638,0.674-4.34,0.332c-1.792-0.359-3.118-1.098-3.977-2.216c-0.859-1.117-1.147-2.252-0.864-3.403l0.04-0.07
		l3.323,0.667c-0.12,0.727,0.011,1.298,0.395,1.711c0.383,0.414,0.936,0.692,1.657,0.838c0.673,0.135,1.212,0.103,1.619-0.096
		C169.325,58.576,169.575,58.245,169.667,57.78z"/>
	<path fill="#FF6699" d="M184.087,60.673c0.08-0.398-0.044-0.779-0.373-1.144c-0.328-0.363-0.993-0.758-1.996-1.184
		c-1.514-0.632-2.614-1.349-3.303-2.152c-0.689-0.803-0.925-1.752-0.704-2.848c0.231-1.152,0.918-2.038,2.061-2.654
		c1.143-0.617,2.526-0.763,4.153-0.436c1.701,0.341,2.982,1.021,3.844,2.041c0.862,1.019,1.15,2.129,0.865,3.332l-0.04,0.07
		l-3.51-0.705c0.108-0.539,0.022-1.014-0.258-1.424s-0.748-0.682-1.404-0.813c-0.581-0.117-1.07-0.064-1.469,0.158
		c-0.397,0.222-0.64,0.545-0.725,0.968c-0.084,0.415,0.025,0.788,0.325,1.121c0.301,0.332,0.969,0.71,2.006,1.134
		c1.585,0.663,2.718,1.398,3.396,2.203c0.681,0.806,0.907,1.772,0.681,2.901c-0.243,1.212-0.961,2.099-2.153,2.663
		c-1.191,0.563-2.639,0.674-4.34,0.332c-1.792-0.359-3.118-1.098-3.977-2.216c-0.859-1.117-1.147-2.252-0.864-3.404l0.04-0.069
		l3.323,0.667c-0.12,0.727,0.011,1.297,0.395,1.711c0.383,0.413,0.936,0.692,1.657,0.838c0.673,0.135,1.212,0.103,1.618-0.097
		C183.744,61.47,183.994,61.138,184.087,60.673z"/>
	<path fill="#FF6699" d="M194.383,66.625l-3.635-0.729l0.64-3.187l3.635,0.729L194.383,66.625z M195.637,60.376l-3.635-0.729
		l2.384-11.875l3.635,0.729L195.637,60.376z"/>
	<path fill="#FF6699" d="M72.732,81.891l6.578-8.261l2.801,0.563l-8.719,10.474l-1.279,6.372l-2.439-0.489l1.316-6.561l-3.94-12.819
		l2.801,0.563L72.732,81.891z"/>
	<path fill="#FF6699" d="M82.083,85.906c0.399-1.992,1.269-3.524,2.606-4.599c1.338-1.073,2.932-1.425,4.782-1.053
		c1.867,0.374,3.213,1.313,4.037,2.817c0.825,1.503,1.037,3.255,0.636,5.255L94.088,88.6c-0.403,2.008-1.272,3.543-2.607,4.604
		s-2.932,1.405-4.791,1.032c-1.858-0.373-3.201-1.31-4.026-2.809s-1.037-3.249-0.636-5.249L82.083,85.906z M84.48,86.671
		c-0.287,1.427-0.223,2.666,0.192,3.716c0.415,1.051,1.216,1.694,2.402,1.933c1.17,0.235,2.151-0.052,2.943-0.859
		c0.793-0.808,1.332-1.925,1.618-3.353l0.056-0.273c0.283-1.411,0.214-2.646-0.208-3.707c-0.422-1.06-1.222-1.708-2.4-1.944
		c-1.17-0.235-2.149,0.056-2.939,0.873s-1.326,1.931-1.609,3.342L84.48,86.671z"/>
	<path fill="#FF6699" d="M105.993,95.768c-0.568,0.637-1.223,1.084-1.966,1.341c-0.742,0.257-1.549,0.297-2.42,0.122
		c-1.469-0.295-2.52-0.993-3.153-2.096c-0.633-1.103-0.75-2.646-0.353-4.629l1.595-7.941l2.451,0.492l-1.599,7.966
		c-0.288,1.437-0.274,2.466,0.04,3.09c0.314,0.625,0.92,1.026,1.816,1.207c0.871,0.175,1.627,0.143,2.266-0.096
		c0.64-0.239,1.169-0.652,1.59-1.241l1.949-9.709l2.452,0.492l-2.704,13.468l-2.203-0.442L105.993,95.768z"/>
	<path fill="#FF6699" d="M118.636,84.024l-2.122,4.054l-1.207-0.242l0.869-4.267l0.489-2.439l2.452,0.492L118.636,84.024z"/>
	<path fill="#FF6699" d="M123.153,101.284l-2.452-0.492l3.898-19.417l2.452,0.492L123.153,101.284z"/>
	<path fill="#FF6699" d="M130.85,102.829l-2.452-0.492l3.898-19.417l2.451,0.492L130.85,102.829z"/>
	<path fill="#FF6699" d="M148.299,94.199c0.595-0.554,1.267-0.943,2.015-1.168c0.75-0.226,1.534-0.256,2.355-0.091
		c1.437,0.288,2.468,0.943,3.095,1.968c0.628,1.024,0.762,2.432,0.401,4.224l-1.693,8.439l-2.452-0.492l1.699-8.464
		c0.223-1.112,0.149-1.981-0.221-2.608c-0.371-0.626-1.029-1.035-1.976-1.225c-0.729-0.147-1.394-0.131-1.99,0.047
		s-1.112,0.491-1.548,0.938l-2.026,10.095l-2.452-0.492l3.897-19.417l2.452,0.492L148.299,94.199z"/>
	<path fill="#FF6699" d="M164.792,109.915c-1.933-0.388-3.317-1.309-4.151-2.763c-0.835-1.454-1.051-3.189-0.646-5.205l0.109-0.548
		c0.389-1.934,1.269-3.421,2.639-4.463c1.369-1.041,2.859-1.4,4.47-1.077c1.8,0.361,3.038,1.192,3.715,2.494
		c0.675,1.301,0.826,2.881,0.453,4.739l-0.26,1.295l-8.614-1.729l-0.051,0.055c-0.271,1.353-0.192,2.51,0.235,3.473
		c0.429,0.961,1.258,1.566,2.485,1.813c0.831,0.167,1.582,0.194,2.256,0.084c0.674-0.111,1.277-0.329,1.809-0.653l0.638,1.785
		c-0.574,0.368-1.288,0.633-2.14,0.794C166.886,110.168,165.905,110.138,164.792,109.915z M166.826,97.789
		c-0.855-0.172-1.629,0.016-2.32,0.563c-0.693,0.547-1.205,1.322-1.536,2.326l0.012,0.068l6.074,1.219l0.04-0.199
		c0.197-0.979,0.12-1.836-0.234-2.572C168.508,98.458,167.83,97.99,166.826,97.789z"/>
	<path fill="#FF6699" d="M182.165,113.129c-0.002-0.423,0.006-0.795,0.022-1.115c0.018-0.32,0.054-0.639,0.108-0.956
		c-0.587,0.556-1.29,0.978-2.113,1.266c-0.82,0.289-1.655,0.348-2.501,0.178c-1.403-0.281-2.398-0.855-2.99-1.72
		c-0.589-0.865-0.758-1.929-0.505-3.19c0.258-1.286,0.981-2.187,2.169-2.704c1.187-0.518,2.672-0.597,4.456-0.238l2.663,0.534
		l0.268-1.332c0.158-0.788,0.044-1.461-0.346-2.018c-0.39-0.558-1.022-0.924-1.902-1.101c-0.797-0.16-1.48-0.09-2.05,0.21
		c-0.568,0.3-0.91,0.729-1.021,1.284l-2.332-0.442l-0.011-0.08c0.139-0.99,0.777-1.795,1.916-2.412
		c1.138-0.618,2.479-0.771,4.021-0.462c1.527,0.307,2.678,0.941,3.451,1.903c0.774,0.963,1.014,2.174,0.721,3.635l-1.302,6.484
		c-0.097,0.481-0.165,0.951-0.205,1.409s-0.038,0.916,0.009,1.374L182.165,113.129z M178.454,110.52
		c0.888,0.179,1.735,0.111,2.54-0.202s1.375-0.742,1.709-1.288l0.439-2.191l-2.75-0.552c-0.987-0.198-1.829-0.108-2.522,0.271
		c-0.692,0.379-1.106,0.904-1.241,1.576c-0.12,0.598-0.028,1.108,0.275,1.532C177.208,110.088,177.723,110.374,178.454,110.52z"/>
	<path fill="#FF6699" d="M197.818,104.514l-1.241-0.327c-0.647-0.13-1.225-0.085-1.73,0.132c-0.504,0.219-0.934,0.581-1.286,1.089
		l-1.932,9.621l-2.451-0.492l2.703-13.467l2.19,0.439l-0.158,2.014c0.522-0.62,1.102-1.069,1.74-1.347
		c0.638-0.277,1.322-0.343,2.053-0.196c0.183,0.037,0.354,0.086,0.514,0.148c0.16,0.063,0.291,0.121,0.393,0.176L197.818,104.514z"
		/>
	<path fill="#FF6699" d="M39.16,116.247l2.338-11.65l-2.104-0.422l0.365-1.817l2.104,0.422l0.342-1.705
		c0.288-1.436,0.887-2.47,1.795-3.104c0.909-0.633,2.035-0.815,3.38-0.545c0.281,0.057,0.562,0.137,0.838,0.239
		c0.277,0.103,0.582,0.23,0.914,0.384l-0.674,1.808c-0.143-0.063-0.317-0.129-0.524-0.196c-0.206-0.067-0.426-0.124-0.657-0.171
		c-0.714-0.144-1.288-0.036-1.723,0.321s-0.732,0.942-0.896,1.756l-0.342,1.705l2.439,0.49l-0.365,1.817l-2.439-0.49l-2.338,11.65
		L39.16,116.247z"/>
	<path fill="#FF6699" d="M56.444,107.958l-1.242-0.327c-0.646-0.13-1.224-0.086-1.729,0.133c-0.505,0.218-0.934,0.581-1.286,1.088
		l-1.932,9.622l-2.452-0.492l2.703-13.468l2.191,0.439l-0.158,2.015c0.521-0.621,1.102-1.07,1.739-1.348
		c0.639-0.277,1.323-0.343,2.054-0.196c0.183,0.036,0.354,0.086,0.514,0.148s0.291,0.121,0.392,0.176L56.444,107.958z"/>
	<path fill="#FF6699" d="M58.557,113.005c0.399-1.991,1.269-3.524,2.606-4.598c1.337-1.073,2.932-1.425,4.782-1.054
		c1.867,0.375,3.213,1.314,4.037,2.817c0.825,1.504,1.036,3.256,0.635,5.255l-0.055,0.274c-0.403,2.009-1.272,3.543-2.607,4.604
		c-1.335,1.063-2.932,1.406-4.791,1.033s-3.201-1.31-4.026-2.809c-0.825-1.5-1.038-3.25-0.636-5.249L58.557,113.005z
		 M60.955,113.772c-0.287,1.427-0.223,2.666,0.192,3.716s1.216,1.694,2.402,1.933c1.17,0.234,2.151-0.052,2.943-0.859
		s1.332-1.926,1.619-3.353l0.055-0.274c0.283-1.41,0.214-2.646-0.208-3.706c-0.422-1.06-1.223-1.708-2.4-1.944
		c-1.17-0.235-2.149,0.056-2.939,0.873s-1.326,1.931-1.609,3.341L60.955,113.772z"/>
	<path fill="#FF6699" d="M78.41,110.115l-0.181,1.803c0.568-0.551,1.226-0.935,1.973-1.151s1.569-0.235,2.465-0.056
		c0.896,0.18,1.624,0.542,2.185,1.086c0.56,0.544,0.918,1.264,1.075,2.158c0.586-0.686,1.271-1.181,2.053-1.485
		c0.781-0.305,1.638-0.363,2.566-0.177c1.37,0.274,2.357,0.963,2.966,2.064c0.607,1.102,0.721,2.599,0.341,4.491l-1.616,8.053
		l-2.452-0.492l1.622-8.078c0.266-1.328,0.227-2.313-0.119-2.957s-0.971-1.056-1.875-1.237c-0.838-0.168-1.575-0.014-2.21,0.463
		s-1.088,1.149-1.357,2.02l-0.02,0.1l-1.717,8.551l-2.464-0.494l1.621-8.078c0.253-1.262,0.204-2.231-0.147-2.911
		c-0.351-0.679-0.967-1.106-1.847-1.283c-0.746-0.15-1.392-0.12-1.935,0.091c-0.543,0.21-0.999,0.567-1.367,1.071l-2.001,9.971
		l-2.452-0.492l2.703-13.468L78.41,110.115z"/>
	<path fill="#FF6699" d="M109.575,116.371l-0.181,1.803c0.568-0.551,1.226-0.935,1.973-1.151s1.569-0.235,2.465-0.056
		c0.896,0.18,1.624,0.542,2.185,1.086c0.56,0.544,0.918,1.264,1.075,2.158c0.586-0.686,1.271-1.181,2.053-1.485
		c0.781-0.305,1.638-0.363,2.566-0.178c1.369,0.275,2.357,0.964,2.966,2.065c0.607,1.102,0.721,2.599,0.341,4.49l-1.616,8.054
		l-2.452-0.492l1.622-8.078c0.266-1.328,0.227-2.313-0.119-2.957s-0.971-1.056-1.875-1.237c-0.838-0.168-1.575-0.014-2.21,0.463
		s-1.088,1.149-1.357,2.02l-0.02,0.1l-1.717,8.551l-2.464-0.494l1.621-8.078c0.253-1.262,0.204-2.232-0.147-2.911
		s-0.967-1.106-1.847-1.283c-0.747-0.15-1.392-0.12-1.935,0.091c-0.543,0.21-0.999,0.567-1.368,1.071l-2.001,9.971l-2.451-0.492
		l2.703-13.468L109.575,116.371z"/>
	<path fill="#FF6699" d="M133.759,135.507c-1.935-0.388-3.318-1.31-4.152-2.763c-0.835-1.454-1.05-3.188-0.646-5.205l0.11-0.548
		c0.389-1.934,1.268-3.421,2.637-4.462c1.37-1.042,2.86-1.4,4.471-1.078c1.801,0.361,3.038,1.193,3.714,2.494
		s0.827,2.881,0.454,4.739l-0.26,1.295l-8.614-1.729l-0.05,0.055c-0.271,1.353-0.192,2.51,0.235,3.473
		c0.429,0.962,1.257,1.566,2.485,1.813c0.829,0.167,1.581,0.194,2.255,0.084c0.675-0.11,1.277-0.328,1.809-0.653l0.639,1.786
		c-0.574,0.367-1.288,0.633-2.141,0.793C135.853,135.762,134.871,135.731,133.759,135.507z M135.792,123.381
		c-0.854-0.172-1.628,0.017-2.32,0.563c-0.693,0.548-1.205,1.323-1.536,2.327l0.013,0.067l6.074,1.219l0.04-0.199
		c0.196-0.979,0.118-1.836-0.235-2.572C137.474,124.051,136.795,123.583,135.792,123.381z"/>
	<path fill="#FF6699" d="M159.02,136.539c0.108-0.54-0.009-1.021-0.352-1.443c-0.342-0.423-1.062-0.878-2.154-1.365
		c-1.516-0.658-2.639-1.379-3.366-2.164s-0.987-1.692-0.781-2.721c0.22-1.096,0.875-1.939,1.966-2.532
		c1.09-0.592,2.378-0.739,3.862-0.441c1.528,0.307,2.68,0.97,3.459,1.989c0.78,1.02,1.037,2.077,0.776,3.173l-0.04,0.069
		l-2.341-0.47c0.117-0.581-0.032-1.159-0.448-1.734c-0.414-0.575-1.013-0.941-1.794-1.099c-0.861-0.173-1.546-0.107-2.051,0.197
		c-0.508,0.304-0.813,0.726-0.922,1.265c-0.106,0.531-0.005,0.979,0.306,1.344c0.312,0.365,1.019,0.782,2.125,1.256
		c1.581,0.68,2.734,1.424,3.462,2.235c0.726,0.811,0.985,1.73,0.778,2.759c-0.239,1.195-0.918,2.073-2.036,2.634
		c-1.119,0.562-2.458,0.686-4.018,0.372c-1.718-0.345-2.982-1.052-3.796-2.121c-0.813-1.069-1.077-2.18-0.794-3.332l0.04-0.069
		l2.34,0.47c-0.133,0.879,0.063,1.581,0.587,2.105c0.526,0.524,1.194,0.867,2.008,1.03c0.872,0.175,1.591,0.128,2.159-0.143
		C158.563,137.532,158.905,137.111,159.02,136.539z"/>
	<path fill="#FF6699" d="M165.873,134.547c0.4-1.992,1.269-3.524,2.606-4.598c1.338-1.074,2.932-1.426,4.782-1.054
		c1.867,0.374,3.213,1.313,4.038,2.817c0.824,1.504,1.036,3.256,0.635,5.255l-0.055,0.274c-0.403,2.008-1.272,3.543-2.608,4.604
		c-1.335,1.062-2.933,1.405-4.791,1.032s-3.201-1.309-4.025-2.809c-0.826-1.499-1.038-3.249-0.637-5.249L165.873,134.547z
		 M168.27,135.313c-0.286,1.428-0.223,2.666,0.192,3.716c0.415,1.051,1.217,1.694,2.402,1.933c1.171,0.235,2.151-0.052,2.944-0.859
		c0.792-0.808,1.331-1.925,1.618-3.352l0.055-0.274c0.283-1.41,0.214-2.646-0.207-3.706c-0.423-1.061-1.223-1.709-2.401-1.945
		c-1.17-0.234-2.149,0.057-2.939,0.873c-0.789,0.817-1.326,1.932-1.609,3.342L168.27,135.313z"/>
	<path fill="#FF6699" d="M181.635,137.711c0.4-1.992,1.269-3.524,2.606-4.598c1.338-1.074,2.932-1.426,4.782-1.054
		c1.867,0.374,3.213,1.313,4.038,2.817c0.824,1.504,1.036,3.256,0.635,5.255l-0.055,0.274c-0.403,2.008-1.272,3.543-2.608,4.604
		c-1.335,1.062-2.933,1.405-4.791,1.032s-3.201-1.309-4.025-2.809c-0.826-1.499-1.038-3.249-0.637-5.249L181.635,137.711z
		 M184.033,138.477c-0.286,1.428-0.223,2.666,0.192,3.716c0.415,1.051,1.217,1.694,2.402,1.933c1.171,0.235,2.151-0.052,2.944-0.859
		c0.792-0.808,1.331-1.925,1.618-3.352l0.055-0.274c0.283-1.41,0.214-2.646-0.207-3.706c-0.423-1.061-1.223-1.709-2.401-1.945
		c-1.17-0.234-2.149,0.057-2.939,0.873c-0.789,0.817-1.326,1.932-1.609,3.342L184.033,138.477z"/>
	<path fill="#FF6699" d="M201.488,134.821l-0.228,2.039c0.592-0.624,1.265-1.065,2.02-1.323c0.756-0.259,1.565-0.301,2.429-0.128
		c1.452,0.292,2.491,0.942,3.116,1.953c0.626,1.011,0.761,2.404,0.404,4.18l-1.706,8.501l-2.452-0.492l1.696-8.452
		c0.238-1.187,0.173-2.075-0.195-2.668c-0.37-0.592-1.035-0.984-1.998-1.178c-0.755-0.151-1.426-0.128-2.015,0.068
		c-0.588,0.197-1.089,0.539-1.506,1.025l-2.007,9.995l-2.452-0.492l2.703-13.468L201.488,134.821z"/>
	<path fill="#FF6699" d="M103.179,151.481l-2.277-0.458l5.537-8.302l1.668,0.335L110,152.85l-2.253-0.452l-1.02-5.631l-0.024-0.911
		l-0.074-0.015l-0.374,0.831L103.179,151.481z"/>
	<path fill="#FF6699" d="M121.404,166.573l-11.489-2.307l0.385-1.917l11.489,2.306L121.404,166.573z"/>
	<path fill="#FF6699" d="M127.971,156.458L125.694,156l5.538-8.302l1.668,0.335l1.893,9.794l-2.253-0.453l-1.02-5.63l-0.023-0.911
		l-0.075-0.015l-0.374,0.831L127.971,156.458z"/>
</g>
</svg>
