<?xml version="1.0" encoding="utf-8"?>
<!-- Generator: Adobe Illustrator 16.0.3, SVG Export Plug-In . SVG Version: 6.00 Build 0)  -->
<!DOCTYPE svg PUBLIC "-//W3C//DTD SVG 1.1//EN" "http://www.w3.org/Graphics/SVG/1.1/DTD/svg11.dtd">
<svg version="1.1" id="Layer_1" xmlns="http://www.w3.org/2000/svg" xmlns:xlink="http://www.w3.org/1999/xlink" x="0px" y="0px"
	 width="592.054px" height="497.046px" viewBox="0 0 592.054 497.046" enable-background="new 0 0 592.054 497.046"
	 xml:space="preserve">
<g>
	<g>
		<path fill="#33CCFF" d="M548.068,296.552c0,0-0.002-3.499-0.007-10.06c0-0.82-0.001-1.688-0.002-2.603
			c-0.011-0.889,0.028-1.947-0.042-2.786c-0.093-1.786-0.193-3.735-0.303-5.842c-0.119-2.117-0.181-4.359-0.353-6.82
			c-0.253-2.512-0.521-5.181-0.805-8.001c-0.14-1.412-0.283-2.862-0.43-4.35c-0.187-1.481-0.446-2.989-0.673-4.54
			c-0.49-3.095-0.915-6.355-1.508-9.726c-0.681-3.356-1.39-6.85-2.125-10.473c-0.319-1.827-0.867-3.629-1.321-5.491
			c-0.474-1.857-0.955-3.747-1.445-5.667c-4.125-15.298-10.186-32.259-18.954-49.824c-0.508-1.119-1.091-2.205-1.689-3.29
			c-0.59-1.09-1.183-2.186-1.778-3.287c-1.202-2.197-2.369-4.447-3.629-6.67c-1.324-2.188-2.66-4.396-4.008-6.624
			c-0.673-1.116-1.35-2.237-2.028-3.363c-0.68-1.126-1.458-2.194-2.187-3.303c-1.48-2.204-2.973-4.426-4.479-6.666
			c-0.729-1.139-1.555-2.213-2.368-3.304c-0.813-1.092-1.63-2.188-2.449-3.288c-0.819-1.102-1.641-2.208-2.466-3.318l-1.24-1.67
			l-1.326-1.61c-1.77-2.155-3.553-4.326-5.348-6.511l-1.349-1.646c-0.459-0.541-0.95-1.056-1.424-1.587
			c-0.957-1.056-1.917-2.116-2.88-3.179c-0.962-1.065-1.928-2.133-2.896-3.205l-1.455-1.612c-0.498-0.527-1.021-1.03-1.531-1.548
			c-2.053-2.062-4.118-4.136-6.195-6.223l-1.563-1.568l-1.64-1.493c-1.095-0.999-2.193-2-3.294-3.004
			c-4.319-4.123-9.059-7.851-13.734-11.767c-2.376-1.907-4.871-3.684-7.319-5.552c-1.23-0.925-2.464-1.853-3.7-2.783
			c-1.279-0.869-2.561-1.74-3.845-2.612c-20.432-14.16-43.688-25.838-68.643-34.092c-3.139-0.979-6.283-1.959-9.434-2.941
			c-3.167-0.93-6.391-1.674-9.595-2.527c-1.606-0.408-3.209-0.844-4.823-1.232l-4.885-0.998l-4.894-1.003
			c-1.635-0.323-3.261-0.715-4.917-0.927c-3.302-0.505-6.606-1.011-9.914-1.517c-0.828-0.119-1.653-0.273-2.485-0.364l-2.5-0.252
			l-5.005-0.508l-5.012-0.512c-1.671-0.19-3.353-0.197-5.03-0.305l-5.039-0.256l-2.521-0.129l-1.261-0.065l-0.631-0.033
			l-0.315-0.017c0.019-0.007-0.488-0.007-0.037-0.02L274.842,22l-2.623,0.002c-0.879-0.003-1.759-0.007-2.562,0.053l-4.946,0.255
			l-4.95,0.248l-2.478,0.121c-0.828,0.047-1.671,0.16-2.506,0.237c-3.351,0.339-6.7,0.677-10.045,1.015
			c-1.681,0.129-3.333,0.438-4.996,0.679l-4.982,0.759l-4.981,0.755c-1.648,0.309-3.287,0.665-4.93,0.994
			c-3.278,0.696-6.582,1.283-9.834,2.061c-3.241,0.831-6.477,1.661-9.706,2.489c-25.727,7.071-50.111,17.765-71.87,31.252
			c-1.368,0.832-2.733,1.662-4.096,2.49c-1.321,0.891-2.64,1.78-3.956,2.667c-2.62,1.793-5.289,3.5-7.841,5.342
			c-5.029,3.785-10.131,7.403-14.82,11.435c-1.194,0.982-2.385,1.962-3.572,2.939l-1.78,1.464l-1.703,1.541
			c-2.268,2.056-4.522,4.1-6.763,6.131c-0.558,0.511-1.128,1.008-1.673,1.529l-1.598,1.596c-1.065,1.063-2.126,2.122-3.184,3.178
			c-1.059,1.056-2.115,2.109-3.167,3.159c-0.522,0.528-1.061,1.041-1.568,1.581l-1.493,1.64c-1.99,2.185-3.966,4.354-5.928,6.508
			l-1.47,1.614l-1.385,1.676c-0.922,1.115-1.841,2.227-2.756,3.334c-0.916,1.108-1.829,2.211-2.738,3.311
			c-0.91,1.1-1.832,2.183-2.657,3.333c-1.698,2.267-3.382,4.516-5.052,6.746c-0.824,1.124-1.696,2.208-2.471,3.353
			c-0.774,1.145-1.545,2.285-2.313,3.419c-1.537,2.271-3.061,4.523-4.57,6.753c-1.446,2.271-2.798,4.572-4.183,6.825
			c-0.688,1.13-1.372,2.254-2.052,3.373c-0.69,1.114-1.363,2.23-1.96,3.38c-10.206,18.063-17.578,35.75-22.813,51.846
			c-0.628,2.022-1.246,4.012-1.854,5.968c-0.586,1.963-1.264,3.868-1.71,5.797c-0.985,3.838-1.935,7.537-2.847,11.092
			c-0.821,3.577-1.461,7.043-2.154,10.34c-0.328,1.652-0.686,3.262-0.967,4.842c-0.241,1.588-0.476,3.136-0.706,4.644
			c-0.458,3.019-0.893,5.875-1.302,8.563c-0.331,2.699-0.544,5.24-0.795,7.601c-0.238,2.363-0.458,4.55-0.66,6.553
			c-0.187,2.005-0.215,3.835-0.316,5.471c-0.326,6.551-0.5,10.045-0.5,10.045s0.002-3.5,0.007-10.063
			c0.021-1.641-0.041-3.479,0.047-5.494c0.104-2.016,0.216-4.217,0.338-6.595c0.135-2.379,0.224-4.941,0.423-7.668
			c0.277-2.72,0.573-5.61,0.884-8.665c0.156-1.528,0.316-3.099,0.481-4.709c0.205-1.604,0.484-3.238,0.733-4.918
			c0.534-3.354,1.009-6.883,1.66-10.533c0.745-3.636,1.52-7.419,2.325-11.344c0.356-1.976,0.945-3.931,1.44-5.948
			c0.518-2.012,1.045-4.058,1.58-6.137c4.503-16.569,11.107-34.933,20.644-53.932c0.556-1.208,1.187-2.384,1.836-3.559
			c0.64-1.179,1.283-2.365,1.93-3.557c1.305-2.377,2.578-4.807,3.948-7.21c1.436-2.366,2.885-4.753,4.348-7.163
			c0.732-1.206,1.468-2.417,2.207-3.633c0.74-1.216,1.579-2.374,2.369-3.571c1.607-2.381,3.229-4.782,4.862-7.203
			c0.795-1.228,1.688-2.391,2.569-3.57c0.881-1.18,1.766-2.364,2.654-3.553c0.889-1.19,1.782-2.384,2.678-3.583l1.348-1.802
			l1.435-1.741c1.919-2.328,3.853-4.672,5.799-7.032l1.464-1.774c0.498-0.584,1.028-1.142,1.542-1.716
			c1.036-1.141,2.076-2.286,3.119-3.435c1.044-1.149,2.091-2.302,3.142-3.458l1.58-1.738c0.539-0.568,1.104-1.113,1.656-1.673
			c2.225-2.225,4.463-4.464,6.714-6.716l1.695-1.689l1.774-1.614c1.186-1.078,2.375-2.159,3.566-3.243
			c4.686-4.44,9.808-8.478,14.88-12.691c2.574-2.056,5.271-3.98,7.924-5.992c1.334-0.997,2.671-1.996,4.011-2.997
			c1.384-0.938,2.771-1.879,4.16-2.822c22.126-15.266,47.305-27.856,74.314-36.726c3.396-1.051,6.799-2.104,10.208-3.159
			c3.427-0.998,6.912-1.805,10.378-2.717c1.738-0.438,3.473-0.901,5.219-1.317l5.28-1.074l5.292-1.073
			c1.768-0.345,3.527-0.758,5.315-0.989c3.568-0.539,7.14-1.079,10.714-1.619c0.898-0.126,1.781-0.287,2.692-0.386l2.746-0.275
			l5.5-0.546l5.511-0.538c0.938-0.107,1.806-0.146,2.675-0.186l2.62-0.131L284.783,0l11.175,0.011
			c1.816,0.028,3.638-0.045,5.451,0.066l5.444,0.282l5.446,0.285l2.724,0.145c0.907,0.055,1.809,0.174,2.713,0.258
			c3.618,0.373,7.233,0.745,10.845,1.118c1.813,0.148,3.599,0.479,5.395,0.741l5.38,0.829l5.378,0.833
			c1.78,0.335,3.55,0.719,5.325,1.078c3.54,0.754,7.105,1.405,10.617,2.25c3.5,0.904,6.993,1.807,10.48,2.708
			c27.78,7.687,54.088,19.293,77.542,33.886c1.473,0.902,2.943,1.802,4.411,2.699c1.425,0.962,2.847,1.923,4.267,2.881
			c2.824,1.937,5.695,3.791,8.446,5.782c5.425,4.084,10.909,8.011,15.965,12.36c1.285,1.063,2.566,2.122,3.845,3.179l1.914,1.585
			l1.836,1.662c2.441,2.221,4.868,4.43,7.28,6.625c0.6,0.553,1.212,1.091,1.799,1.654l1.724,1.722
			c1.146,1.147,2.289,2.291,3.429,3.431c1.139,1.142,2.274,2.28,3.406,3.414c0.562,0.571,1.14,1.127,1.686,1.709l1.609,1.769
			c2.141,2.359,4.267,4.702,6.378,7.028l1.579,1.745l1.492,1.807c0.993,1.204,1.982,2.403,2.968,3.599
			c0.984,1.196,1.966,2.389,2.943,3.576c0.977,1.188,1.966,2.36,2.857,3.6c1.826,2.447,3.639,4.875,5.436,7.282
			c0.887,1.214,1.82,2.388,2.655,3.622c0.833,1.235,1.664,2.465,2.49,3.689c1.651,2.453,3.288,4.885,4.91,7.293
			c1.556,2.451,3.014,4.932,4.501,7.365c0.738,1.22,1.473,2.434,2.204,3.642c0.739,1.204,1.461,2.409,2.106,3.649
			c10.974,19.497,18.89,38.587,24.503,55.954c0.673,2.182,1.336,4.328,1.987,6.439c0.629,2.118,1.347,4.175,1.83,6.254
			c1.054,4.139,2.07,8.129,3.046,11.964c0.88,3.856,1.569,7.591,2.307,11.146c0.35,1.781,0.728,3.517,1.027,5.221
			c0.259,1.71,0.511,3.378,0.757,5.002c0.486,3.253,0.947,6.331,1.381,9.229c0.358,2.963,0.599,5.825,0.866,8.446
			c0.251,2.636,0.482,5.073,0.695,7.307c0.129,1.169,0.132,2.037,0.189,2.977c0.046,0.914,0.089,1.78,0.13,2.6
			c0.326,6.553,0.501,10.048,0.501,10.048L548.068,296.552z"/>
	</g>
	<g>
		<path fill="#33CCFF" d="M358.115,297.554c0,0,0.057-1.168,0.162-3.358c0.014-0.273,0.027-0.563,0.042-0.869
			c0.012-0.28,0.038-0.693,0.035-0.863c0.009-0.445,0.019-0.932,0.029-1.457c0.01-0.537,0.05-1.075,0.054-1.73
			c-0.024-0.708-0.05-1.461-0.077-2.257c-0.127-3.185-0.446-7.078-1.356-11.485c-0.883-4.41-2.289-9.354-4.481-14.568
			c-2.179-5.218-5.246-10.635-9.173-15.979c-1.999-2.638-4.172-5.301-6.649-7.799c-1.194-1.3-2.526-2.479-3.837-3.729
			c-0.667-0.608-1.374-1.176-2.064-1.775l-1.046-0.896l-1.093-0.843c-5.806-4.581-12.54-8.504-19.917-11.451
			c-3.684-1.494-7.55-2.635-11.504-3.614c-3.966-0.932-8.044-1.526-12.178-1.929c0.521-0.009,0.082-0.005,0.17-0.009l-0.11-0.005
			l-0.219-0.011l-0.438-0.021l-0.876-0.042l-1.752-0.084l-0.875-0.042c-0.297-0.016-0.593-0.03-0.815-0.026l-1.46-0.009
			c-0.991,0.01-1.919-0.065-2.976,0.002l-3.126,0.138c-4.153,0.316-8.318,0.82-12.389,1.724c-8.149,1.764-16.013,4.704-23.145,8.613
			l-1.344,0.721l-1.301,0.78c-0.862,0.525-1.743,1.022-2.586,1.566c-1.663,1.12-3.357,2.188-4.921,3.396
			c-3.215,2.315-6.152,4.877-8.921,7.489c-5.468,5.292-10.093,10.976-13.707,16.691c-3.63,5.709-6.348,11.378-8.342,16.586
			c-0.468,1.312-0.974,2.571-1.372,3.815c-0.389,1.251-0.765,2.456-1.125,3.614c-0.333,1.167-0.6,2.302-0.885,3.383
			c-0.137,0.542-0.271,1.071-0.402,1.588c-0.106,0.521-0.21,1.03-0.311,1.526c-0.203,0.994-0.394,1.936-0.574,2.821
			c-0.156,0.891-0.268,1.73-0.39,2.512c-0.247,1.563-0.44,2.897-0.523,3.986c-0.216,2.181-0.332,3.344-0.332,3.344
			s-0.056-1.169-0.162-3.36c-0.078-1.101-0.083-2.455-0.067-4.054c0.007-0.799-0.005-1.661,0.019-2.579
			c0.049-0.917,0.101-1.893,0.156-2.923c0.253-4.121,0.787-9.154,2.077-14.834c1.261-5.682,3.213-12.029,6.173-18.674
			c2.944-6.648,6.999-13.522,12.155-20.241c2.613-3.325,5.459-6.656,8.668-9.787c1.562-1.616,3.275-3.103,4.979-4.651
			c0.865-0.758,1.773-1.471,2.668-2.215l1.355-1.109l1.408-1.053c7.496-5.685,16.151-10.521,25.582-14.086
			c4.711-1.804,9.633-3.181,14.655-4.317l3.795-0.742c1.249-0.262,2.655-0.403,3.984-0.604l2.026-0.274
			c0.357-0.051,0.645-0.079,0.931-0.106l0.873-0.087l1.745-0.173l0.873-0.086l0.437-0.043l0.218-0.021l0.109-0.011
			c0.16-0.005-0.206-0.003,0.388-0.014c5.195-0.284,10.445-0.301,15.68,0.125c5.221,0.474,10.441,1.213,15.54,2.426
			c10.203,2.382,19.987,6.236,28.81,11.249l1.658,0.93l1.61,0.993c1.066,0.669,2.149,1.313,3.19,2.005
			c2.058,1.417,4.133,2.793,6.063,4.318c3.947,2.949,7.559,6.177,10.94,9.477c6.697,6.667,12.311,13.808,16.69,20.954
			c4.397,7.141,7.661,14.212,10.033,20.691c0.563,1.629,1.153,3.199,1.627,4.744c0.458,1.552,0.9,3.048,1.325,4.485
			c0.391,1.448,0.709,2.853,1.038,4.191c0.157,0.672,0.312,1.328,0.462,1.968c0.124,0.646,0.245,1.274,0.362,1.887
			c0.23,1.229,0.448,2.393,0.653,3.487c0.184,1.153,0.323,2.317,0.462,3.36c0.132,1.056,0.253,2.032,0.364,2.927
			c0.072,0.707,0.139,1.349,0.198,1.924c0.217,2.182,0.332,3.346,0.332,3.346L358.115,297.554z"/>
	</g>
	<g>
		<path fill="#33CCFF" d="M402.007,296.552c0,0-0.145,2.328-0.416,6.695c-0.034,0.546-0.069,1.123-0.107,1.732
			c-0.047,0.635-0.056,1.181-0.15,2.014c-0.162,1.563-0.339,3.27-0.529,5.113c-0.202,1.832-0.393,3.842-0.661,5.901
			c-0.319,1.995-0.658,4.115-1.016,6.355c-0.182,1.117-0.367,2.266-0.559,3.442c-0.217,1.173-0.489,2.367-0.742,3.593
			c-0.531,2.447-1.036,5.015-1.668,7.667c-0.699,2.636-1.427,5.378-2.182,8.224c-0.774,2.836-1.781,5.718-2.717,8.717
			c-3.984,11.923-9.565,25.005-17.244,38.326c-7.641,13.336-17.588,26.761-29.592,39.435c-1.451,1.63-3.082,3.111-4.642,4.675
			c-0.789,0.772-1.581,1.548-2.375,2.325c-0.786,0.784-1.591,1.555-2.437,2.286c-1.669,1.486-3.347,2.98-5.035,4.484l-1.27,1.123
			l-1.321,1.071c-0.883,0.715-1.768,1.431-2.655,2.148c-3.493,2.937-7.274,5.587-11.016,8.337c-1.897,1.341-3.874,2.59-5.819,3.892
			c-0.978,0.644-1.957,1.289-2.938,1.937c-1.011,0.603-2.022,1.207-3.036,1.813c-16.141,9.797-34.19,17.514-53.18,22.536
			c-2.383,0.587-4.77,1.175-7.161,1.764c-2.399,0.546-4.832,0.966-7.248,1.45l-3.633,0.691l-3.667,0.526
			c-2.448,0.324-4.882,0.752-7.343,0.984c-2.459,0.225-4.92,0.45-7.383,0.677c-1.229,0.134-2.463,0.188-3.699,0.231l-3.704,0.153
			l-3.701,0.148c-1.233,0.061-2.47-0.001-3.704,0.004l-7.676-0.078l-6.986-0.434l-1.746-0.108c-0.579-0.034-1.154-0.066-1.802-0.146
			l-3.767-0.405l-3.758-0.413c-1.256-0.131-2.503-0.273-3.701-0.49c-2.42-0.393-4.837-0.786-7.253-1.178
			c-2.411-0.398-4.789-0.99-7.175-1.477l-3.57-0.769l-3.527-0.931c-2.343-0.643-4.696-1.218-7.009-1.917
			c-2.3-0.74-4.597-1.479-6.889-2.216c-18.219-6.205-35.139-14.906-49.952-25.375c-0.93-0.646-1.858-1.292-2.785-1.936
			c-0.896-0.686-1.791-1.37-2.684-2.053c-1.774-1.377-3.576-2.695-5.297-4.101c-3.388-2.881-6.806-5.641-9.93-8.669
			c-0.794-0.739-1.586-1.477-2.376-2.212l-1.182-1.102l-1.129-1.15c-1.498-1.534-2.987-3.059-4.467-4.575
			c-0.751-0.744-1.46-1.526-2.151-2.32c-0.698-0.787-1.394-1.571-2.087-2.353c-1.368-1.579-2.807-3.071-4.065-4.707
			c-10.461-12.723-18.848-25.876-25.052-38.711c-6.24-12.822-10.51-25.178-13.386-36.302c-0.658-2.8-1.399-5.479-1.92-8.109
			c-0.505-2.631-0.993-5.167-1.46-7.604c-0.404-2.446-0.693-4.81-1.022-7.054c-0.151-1.124-0.326-2.218-0.448-3.292
			c-0.097-1.076-0.191-2.127-0.283-3.149c-0.183-2.042-0.356-3.974-0.519-5.793c-0.11-1.821-0.149-3.533-0.219-5.122
			c-0.062-1.588-0.119-3.057-0.171-4.403c-0.042-1.345,0.014-2.571,0.014-3.666c0.051-4.376,0.078-6.71,0.078-6.71
			s0.145,2.328,0.416,6.693c0.081,1.089,0.115,2.308,0.255,3.643c0.151,1.333,0.315,2.788,0.493,4.36
			c0.187,1.57,0.35,3.261,0.591,5.055c0.294,1.787,0.606,3.687,0.937,5.692c0.165,1.001,0.334,2.029,0.507,3.084
			c0.199,1.05,0.451,2.118,0.683,3.215c0.487,2.189,0.942,4.488,1.516,6.861c0.636,2.355,1.297,4.808,1.983,7.352
			c0.699,2.537,1.622,5.109,2.463,7.791c3.608,10.651,8.645,22.33,15.556,34.217c6.874,11.901,15.831,23.862,26.602,35.156
			c1.297,1.456,2.771,2.768,4.168,4.161c0.708,0.688,1.417,1.378,2.129,2.071c0.704,0.699,1.424,1.387,2.186,2.035
			c1.497,1.322,3.002,2.651,4.516,3.989l1.137,1.002l1.188,0.95c0.792,0.635,1.586,1.271,2.382,1.908
			c3.125,2.619,6.524,4.96,9.869,7.411c1.699,1.191,3.473,2.293,5.213,3.451c0.874,0.573,1.75,1.147,2.628,1.723
			c0.904,0.533,1.811,1.067,2.72,1.604c14.444,8.689,30.568,15.496,47.505,19.902c2.125,0.515,4.254,1.03,6.387,1.547
			c2.14,0.479,4.311,0.835,6.465,1.261l3.239,0.607l3.271,0.45c2.184,0.275,4.351,0.659,6.547,0.853
			c2.193,0.191,4.388,0.383,6.585,0.575c1.106,0.12,2.179,0.158,3.246,0.188l3.209,0.115l3.203,0.122
			c0.514,0.032,1.103,0.022,1.689,0.014l1.75-0.021l6.999-0.081c-0.486-0.012-0.016-0.012-0.071-0.018l0.206-0.014l0.412-0.026
			l0.824-0.055l1.647-0.106l3.291-0.212c1.095-0.086,2.193-0.104,3.283-0.243l3.269-0.379l3.263-0.375
			c1.087-0.116,2.173-0.242,3.248-0.446c2.153-0.358,4.305-0.718,6.455-1.076c2.146-0.358,4.257-0.907,6.379-1.345l3.174-0.692
			l3.132-0.846c2.08-0.585,4.172-1.097,6.226-1.729c2.042-0.667,4.08-1.333,6.114-1.998c16.166-5.59,31.162-13.38,44.278-22.742
			c0.824-0.577,1.647-1.152,2.469-1.727c0.792-0.614,1.583-1.227,2.372-1.838c1.569-1.233,3.169-2.405,4.691-3.661
			c2.991-2.581,6.027-5.032,8.783-7.742c0.703-0.659,1.404-1.317,2.104-1.973l1.047-0.98l0.996-1.028
			c1.324-1.368,2.641-2.729,3.949-4.081c0.667-0.661,1.292-1.359,1.9-2.069c0.616-0.702,1.23-1.401,1.843-2.099
			c1.205-1.409,2.487-2.73,3.591-4.193c9.228-11.342,16.624-23.033,22.063-34.433c5.473-11.388,9.199-22.34,11.697-32.193
			c0.563-2.482,1.221-4.851,1.667-7.182c0.436-2.33,0.856-4.575,1.261-6.733c0.346-2.167,0.586-4.261,0.87-6.247
			c0.13-0.995,0.284-1.963,0.388-2.914c0.079-0.954,0.156-1.884,0.231-2.79c0.155-1.809,0.303-3.52,0.44-5.13
			c0.082-1.557,0.095-2.949,0.148-4.276c0.049-1.316,0.095-2.535,0.136-3.651c0.037-0.504,0.004-1.243,0.004-1.826
			c-0.007-0.609-0.014-1.188-0.021-1.735c-0.051-4.375-0.078-6.708-0.078-6.708L402.007,296.552z"/>
	</g>
</g>
</svg>
