<?xml version="1.0" encoding="utf-8"?>
<!-- Generator: Adobe Illustrator 16.0.3, SVG Export Plug-In . SVG Version: 6.00 Build 0)  -->
<!DOCTYPE svg PUBLIC "-//W3C//DTD SVG 1.1//EN" "http://www.w3.org/Graphics/SVG/1.1/DTD/svg11.dtd">
<svg version="1.1" id="Layer_1" xmlns="http://www.w3.org/2000/svg" xmlns:xlink="http://www.w3.org/1999/xlink" x="0px" y="0px"
	 width="505.024px" height="455.535px" viewBox="44 19.374 505.024 455.535" enable-background="new 44 19.374 505.024 455.535"
	 xml:space="preserve">
<g>
	<g>
		<path fill="none" stroke="#33CCFF" stroke-width="12" stroke-linecap="round" stroke-linejoin="round" d="M345.862,222.397
			c0,3.921-0.46,7.738-1.329,11.398"/>
		
			<path fill="none" stroke="#33CCFF" stroke-width="12" stroke-linecap="round" stroke-linejoin="round" stroke-dasharray="26.3909,26.3909" d="
			M331.991,256.661c-8.98,9.297-21.569,15.088-35.479,15.088c-18.626,0-34.883-10.385-43.282-25.666"/>
		<path fill="none" stroke="#33CCFF" stroke-width="12" stroke-linecap="round" stroke-linejoin="round" d="M248.491,233.796
			c-0.869-3.66-1.33-7.477-1.33-11.398l0.029,0.138c0-3.881,0.224-7.71,0.66-11.476"/>
		
			<path fill="none" stroke="#33CCFF" stroke-width="12" stroke-linecap="round" stroke-linejoin="round" stroke-dasharray="22.0685,22.0685" d="
			M252.819,189.597c13.537-38.27,49.994-65.763,92.952-65.763c46.834,0,85.943,32.68,96.045,76.376"/>
		<path fill="none" stroke="#33CCFF" stroke-width="12" stroke-linecap="round" stroke-linejoin="round" d="M443.691,211.059
			c0.436,3.766,0.66,7.595,0.66,11.476l0.091-0.138c0,3.869-0.147,7.702-0.438,11.494"/>
		
			<path fill="none" stroke="#33CCFF" stroke-width="12" stroke-linecap="round" stroke-linejoin="round" stroke-dasharray="23.246,23.246" d="
			M440.423,256.838c-15.5,65.146-74.03,113.37-143.912,113.37c-73.899,0-135.104-53.928-146.152-124.768"/>
		<path fill="none" stroke="#33CCFF" stroke-width="12" stroke-linecap="round" stroke-linejoin="round" d="M149.019,233.891
			c-0.291-3.792-0.438-7.625-0.438-11.494l0.029,0.138c0-3.86,0.11-7.694,0.328-11.499"/>
		
			<path fill="none" stroke="#33CCFF" stroke-width="12" stroke-linecap="round" stroke-linejoin="round" stroke-dasharray="23.8626,23.8626" d="
			M151.727,187.348C168.275,95.14,248.731,25.374,345.771,25.374c101.138,0,184.26,75.783,195.793,173.772"/>
		<path fill="none" stroke="#33CCFF" stroke-width="12" stroke-linecap="round" stroke-linejoin="round" d="M542.603,211.036
			c0.218,3.805,0.328,7.639,0.328,11.499l0.093-0.138c0,3.855-0.088,7.689-0.263,11.5"/>
		
			<path fill="none" stroke="#33CCFF" stroke-width="12" stroke-linecap="round" stroke-linejoin="round" stroke-dasharray="22.7748,22.7748" d="
			M540.68,256.571c-16.612,120.051-119.509,212.338-244.169,212.338c-128.544,0-233.95-98.131-245.467-223.646"/>
		<path fill="none" stroke="#33CCFF" stroke-width="12" stroke-linecap="round" stroke-linejoin="round" d="M50.263,233.897
			c-0.174-3.811-0.263-7.645-0.263-11.5"/>
	</g>
</g>
</svg>
